<?xml version="1.0" encoding="UTF-8"?>
<svg xmlns="http://www.w3.org/2000/svg" id="Grafik" width="595.3" height="528.8" version="1.1" viewBox="0 0 595.3 528.8">
  <g>
    <path d="M533.1,145.1c-2.6,2.8,1.6,7.1,4.2,4.2,2.1-2.2,4.5-4,7.3-5,2.1-.8,3.3-4.4.7-5.5-2.1-.9-6.1-2.2-5-5.2,1.3-3.6-4.5-5.2-5.8-1.6-.5,1.3-.6,2.5-.4,3.6-5.8-1.8-12.6.3-17,4.8-2.7,2.7,1.5,7,4.2,4.2,3.4-3.4,9.6-5.5,13.6-1.8,0,0,.2.1.3.2-.8.7-1.5,1.4-2.2,2.1h.1Z"></path>
    <path d="M468.6,198.4c-2.4-3.3-4.6-6.7-6.5-10.3-1.4-2.5-2.8-5.2-5.4-6.8-5.5-3.5-12-1.6-17.7.4-3.9,1.4-9.5,3.8-13.7,2.1-5-2-2.2-6.7-1.2-10.4.6-2.2-1.1-3.6-2.9-3.7.9-1.6.6-3.9-1.6-4.5-.9-.2-2.1-.7-2.5-1.1,0,0-.3-.6-.4-1l.1-.1c.2-.2.4-.4.6-.6,2.7-.3,3.5-4.9.3-5.9-2.9-.9-6.2-1.5-7.8-4.1,2-2.4,3.5-4.9,4-8.1.2-1.5-.4-3.4-2.1-3.7-1.6-.3-3.3-.5-4.8-1.1-1.3-.6-3.3-1.6-3.2-3.2,0-.3,1.8-2.2,2-2.4,2.9-3.6,5.7-7.5,7-12,1.2-4.2-.2-6.6-1.9-10.3-2.4-5.4-3.6-12.2-1.6-17.8,1.3-3.6-4.5-5.2-5.8-1.6-2.2,6-1.3,13.4.8,19.3.7,2,2.3,4.1,2.8,6.1.8,3.1-1.8,6.8-3.5,9.3-2.6,3.8-7.6,7.1-5.5,12.3,1.6,3.9,5.1,5.7,8.8,6.8-1.8,3.3-4.8,5.5-2.4,9.8,1.5,2.8,3.9,4.2,6.6,5.2-.7,1.5-.8,3.2,0,5.1,1.1,2.9,3.7,4.4,6.6,5.1h.6c-.1.2-.2.4-.3.7-1.1,4.1-3.4,7.6-1.4,11.8,1.1,2.3,2.9,4.1,5.2,5.3,8,4,16.4-1.6,24.1-3.3,4.1-.9,7.5,0,9.7,3.7,2.3,3.9,4.4,7.8,7,11.5,3.4,4.7,6.9,9.4,10.8,13.7,2.5,2.9,6.8-1.3,4.2-4.2-3.3-3.8-6.5-7.8-9.4-11.9l.4-.1ZM416.9,163.2q0,.1,0,0h0Z"></path>
    <path d="M501.7,119.3c8.2-5.3,19.2-9.3,29.2-6.9-1.5,1-3,2.1-4.6,3.3-3,2.4,1.3,6.7,4.2,4.2,3.3-2.6,6.2-4.6,10.5-5,2.4-.2,4.2-3.2,2.1-5.1-2.7-2.6-5.2-5.1-7.3-8.2-2.1-3.2-7.3-.2-5.2,3,.4.6.8,1.2,1.2,1.8-7.1-1.6-15.2-.4-21.8,1.9-3.4,1.2-6.7,2.8-9.8,4.7-3.2,2-6.8,5.6-11,4.5-4.7-1.3-7.4-6.6-11.1-9.5-1-.8-2.1-.8-3.1-.5-2,.5-3.4,3.1-1.5,5,2,2,1.5,6.8.9,9.4-1.1,4.5-4.8,6.8-9.1,7.9-3.7.9-2.2,6.7,1.6,5.8,6.2-1.6,11.7-5.6,13.3-12.1.3-1.4.6-2.9.7-4.4,1.3,1.2,2.6,2.3,4.2,3.1,6.1,3.1,11.3.3,16.5-3.1l.1.2Z"></path>
    <path d="M545.7,181.5c-13.4-2-24.7-11-29.2-23.8,4.2,1.3,8.5.6,12.6-1.2,3.5-1.6.5-6.8-3-5.2-6.3,2.9-10.1-.6-14.8-4.2-3.6-2.8-7.7-3.5-12.2-3.2-3.8.3-3.9,6.3,0,6,4.3-.4,7,.6,10.2,3.4.7.6,1.4,1.2,2.1,1.7-.9.6-1.5,1.7-1.1,3.1,4.9,15.2,18,26.7,33.8,29.1,3.8.6,5.4-5.2,1.6-5.8v.1Z"></path>
    <path d="M510.8,135.6c8.2-2.5,15.1-8.7,23.9-8.7,3.9,0,3.9-6,0-6-6.8,0-12.6,3-18.6,5.9-3.2,1.6-6.5,3.2-10.1,3.8-5.2.8-10.1-1.2-14.8-3.3-3.5-1.5-6.6,3.6-3,5.2,7.5,3.2,14.6,5.6,22.6,3.1h0Z"></path>
    <path d="M500.7,39.9c7,3.7,14.5,2.8,21.5.2-.4.7-.7,1.4-1.1,2.1-1.6,3.5,3.6,6.6,5.2,3,1.7-3.7,4-6.8,7.1-9.3,1.9-1.6.4-5.5-2.1-5.1-3.4.5-6.3-.3-9.1-2.3-3.1-2.3-6.1,2.9-3,5.2.4.3.8.5,1.2.8-5.5,2.1-11.4,3.1-16.7.3-3.4-1.8-6.4,3.4-3,5.2v-.1Z"></path>
    <path d="M503.5,46.7c-8.3-3.8-18-3.4-25.4,2-3.9,2.9-6.3,7.1-10,10.2-4.5,3.7-10,4.7-15.5,3.9,1.4-1.2,2.7-2.5,4.1-3.7,2.8-2.6-1.4-6.9-4.2-4.2-1.7,1.6-3.4,3.1-5.1,4.6-.9.8-3.6,3.6-4.4,3.5-3-.3-4.1,4.3-1.5,5.6,3.1,1.6,7.2,3.1,9.5,5.8,2.6,2.9,6.8-1.3,4.2-4.2-.4-.4-.8-.8-1.2-1.2,7,.5,13.8-1.5,19.1-6.4,3.6-3.4,6.1-7.7,10.5-10.2,5.2-2.9,11.6-2.9,16.9-.4,3.5,1.6,6.5-3.5,3-5.2v-.1Z"></path>
    <path d="M441.4,58.2c1.3.2,2.5-1.1,2.9-2.2,1.1-3.3,3.2-6.2,6.3-7.8,3.2-1.6,8.9-2.2,11.5.8,2.6,2.9,6.8-1.4,4.2-4.2-4-4.4-11.4-4.6-16.6-2.6-4.8,1.8-8.3,5.4-10.3,9.9-5.2-.5-10.3,0-14.3,3.8-3.2,3.1-4.8,7.2-5.7,11.4-.4-.5-.8-1.1-1.2-1.6-2.3-3.1-7.5,0-5.2,3,1,1.4,2.1,2.8,3,4.3.8,1.2,2.3,2.8,2.3,4.3,0,2.8,4.3,4.3,5.6,1.5,1.3-2.7,4.8-4.9,7.8-5.4,3.8-.6,2.2-6.4-1.6-5.8-1.7.3-3.4.9-5.1,1.9.6-2.9,1.4-5.8,3.3-8.1,3.3-4.2,8.3-3.6,13.1-3.1v-.1Z"></path>
    <path d="M394.7,61.6c.9-.8,1.7-1.6,2.5-2.4,1.6,7.6,6.1,14.3,12.9,18.8,3.2,2.1,6.2-3.1,3-5.2-6.3-4.2-9.9-10.8-10.4-18.1,1.7,2.3,4.2,6.5,7.2,6.5,2,0,3.3-1.9,2.9-3.8v-.2c-.2-1-1-1.7-2-2-1.1-1.1-2-2.5-3-3.6-.9-1.1-3.5-3.6-3.1-5.1,1-3.7-4.6-5.3-5.8-1.6-1.6,5-4.5,9.1-8.4,12.6-2.9,2.6,1.4,6.8,4.2,4.2v-.1Z"></path>
    <path d="M416,50.4c2.5-3.3,7.6-6.9,12.5-8.5-.9,1.2-1.4,2.5-1,4.1.9,3.4,5.8,2.4,5.9-.7,1.3-1.9,3.4-3.7,5.4-4.4,2.2-.8,3.2-4.3.7-5.5-4-1.9-7.8-4.1-11.5-6.5-3.2-2.1-6.3,3.1-3,5.2.9.6,1.9,1.2,2.8,1.8-1.7.6-3.2,1.3-4.4,1.8-5,2.2-9.3,5.2-12.6,9.6-2.3,3.1,2.9,6.1,5.2,3v.1Z"></path>
    <path d="M448.3,36.6c2.9-4.7,8.3-6.9,13.7-7.5,3-.4,6.7-.4,9.2,1.7,1.8,1.5,2.7,3.8,4.4,5.5,7.8,7.7,17.7-2,23.6-7.2,2.9-2.5-1.3-6.8-4.2-4.2-2.3,2-4.6,4.1-7.1,5.8-1.4,1-3.7,2.7-5.6,2.4-2.6-.3-3.4-2.3-4.7-4-2.6-3.5-5.9-5.5-10.3-6-9-1.1-19.3,2.6-24.2,10.5-2,3.3,3.2,6.3,5.2,3Z"></path>
    <path d="M549.1,94.3c-1.6,1.3-3.3,2.5-5.4,2.3-2-.2-3.8-1.4-5.3-2.6-3.1-2.3-6.1,2.9-3,5.2,2.7,2,5.8,3.5,9.2,3.4,3.5,0,6.2-2,8.8-4.1,3-2.4-1.3-6.6-4.2-4.2h-.1Z"></path>
    <path d="M558.8,63.3c-1.1-2.7-3.1-3.2-5.8-3.8-3.3-.7-6.4-1.9-9.4-3.5-3.4-1.9-6.4,3.3-3,5.2.4.2.8.4,1.2.6-4.5,0-9.2.9-13.1,2.5-7.1,2.9-11.1,9-19.6,6.5-3.7-1.1-5.3,4.7-1.6,5.8,6,1.7,11.7.8,16.9-2.7,1.3-.8,2.6-1.6,3.9-2.3-.4.6-.6,1.4-.2,2.4.8,2.1,2.1,3.9,3.8,5.4-11,1.9-21,7.3-28.3,15.9-2.5,2.9,1.7,7.2,4.2,4.2,6.8-8,16-13.1,26.3-14.5-1.3,1.3-2.4,2.8-3.2,4.2-1.9,3.3,3.2,6.4,5.2,3,1.8-3.1,5.8-6.5,9.3-7.6,3.4-1,2.4-5.5-.8-5.9-3.3-.4-9.5-3.1-10.7-6.4-.5-1.5-1.8-2.1-3.1-2,4.1-1.8,8.5-2.9,13.1-2.6-.5,1-.6,2.1.1,3.5,1.4,2.6,4.7,1.5,5.4-.8.2-.2.4-.5.6-.7.6-.5,1.2-.9,1.8-1.3.8-.5,2.5-1.8,3.3-1.5,2,.5,4.6-1.5,3.7-3.7v.1Z"></path>
    <path d="M507.8,58.2c-2.5,2.9,1.8,7.2,4.2,4.2,3.8-4.5,11.9-8.9,17.1-4.2,2.9,2.6,7.1-1.6,4.2-4.2-7.7-7-19.5-3.1-25.6,4.2h.1Z"></path>
    <path d="M500.9,79.1c3.3-2,.3-7.2-3-5.2-5.9,3.5-7.1,8-8.9,14.2-.6,2.2-1.8,3.5-3.2,4.5,1.4-3-3.4-5.7-5.4-2.6-2.3,3.4-4.9,6.6-7.7,9.6-1.7,1.8-.6,5.3,2.1,5.1,5.9-.4,13,.1,18.4-2.5,3.5-1.7.4-6.9-3-5.2-.1,0-.3.1-.4.2.6-.5,1.3-1,1.8-1.6,4.7-5.2,2.7-12.6,9.3-16.5h0Z"></path>
    <path d="M465.7,92.2c3.2-3.4,6.9-6.3,11.7-6.8,3.8-.4,3.8-6.4,0-6-6.5.6-11.5,3.9-15.9,8.6-4.5,4.7-5.7,9.9-5.2,16.1-.5-.6-1-1.1-1.5-1.8-2.2-3.1-7.4-.1-5.2,3,1.7,2.4,5.1,4.4,5.5,7.5.4,3,5.1,2.7,5.8,0,.8-3.2,4.1-4.2,6.9-5.1,3.7-1.2,2.1-7-1.6-5.8-1.4.4-2.7.9-4,1.5-.3-4.3.2-7.9,3.5-11.2h0Z"></path>
    <path d="M442.7,88.6c3.5,0,6.4-2.1,8.3-4.8,3.5,2.6,8.5,2.1,12.5-1.1,3.5-2.8,5.9-6.7,9.7-9.3,3.8-2.5,8.1-3.8,12.5-4.2-.3.5-.5,1-.8,1.5-1.5,3.5,3.6,6.6,5.2,3,1.1-2.5,2.7-4.5,4.6-6.5,1.6-1.7,3.5-2,4.4-4.4.7-1.9-1.1-3.7-2.9-3.8-3.3-.1-6.4-.8-9.3-2.3-3.5-1.7-6.5,3.5-3,5.2.9.4,1.7.8,2.6,1.1-5.3.2-10.4,1.5-15.1,4.2-2.5,1.4-4.8,3.3-6.9,5.4-1.6,1.7-9,11.4-11.3,4.5-.9-2.8-4.9-2.9-5.8,0-.3,1.1-.8,2.1-1.5,3-1.1,2-2.9,2-5.4,0,.3-3.8-5.7-3.8-6,0-.4,4.7,3.3,8.4,8,8.3l.2.2Z"></path>
    <path d="M408.3,85c3.5-1.7.4-6.8-3-5.2-2.9,1.4-6.4-.1-7.9-2.9-1.8-3.4-7-.4-5.2,3,3.1,5.8,10.3,7.8,16.1,5v.1Z"></path>
  </g>
  <g>
    <path d="M189.5,313.5c-4.9-1.8-9.7-3.6-14.5-5.6.9-2,1.6-4.1,2.1-6.2.7-3.3-3.6-5.3-5.5-2.3-1.2,1.9-2.6,3.7-4.2,5.3-3-1.3-5.9-2.6-8.8-3.9-3.5-1.6-6.1,2.9-3,5.2,1.8,1.3,5.6,3.6,5.9,5.9.2,1.6-1.3,4.1-1.9,5.5-1.3,3-2.9,5.9-4.1,9-1,2.7,3.2,5.2,5,2.9,2.7-3.3,5.6-6.9,8.4-10.8,2.5,4.3,4.6,8.7,6.4,13.3,1,2.6,4.9,3.1,5.8,0,1-3.5.6-6.8-.8-10.1-.6-1.4-2.1-3.3-3.1-5.3,3.6.9,7.3,1.9,10.9,2.8,3.8,1,5.2-4.5,1.6-5.8l-.2.1Z"></path>
    <path d="M126.3,306c-1.4-.1-2.7-.1-4.1,0,.7-1.5,1.7-2.9,3-4.2,2.8-2.7-1.4-6.9-4.2-4.2-2.4,2.2-4.7,4.5-6.9,7-2.6-1.3-4.8-3.5-7.2-5.1-2.4-1.7-5.9,1.7-4.1,4.1,2,2.6,3.9,5.3,5.9,7.9-2.3,3.4-4.4,7-5.9,10.8-1.4,3.6,4.4,5.1,5.8,1.6,1-2.6,2.3-5,3.8-7.4,1.3,1.8,2.7,3.5,4,5.3.9,2.9,2.2,5.7,3.8,8.2,2,3.3,7.2.3,5.2-3-1-1.6-1.9-3.4-2.6-5.2,2.6-3.7,6.9-5.5,11.3-6.3,1.3-.2,2.2-1.7,2.2-2.9-.1-4.5-6.4-6.1-9.9-6.5l-.1-.1ZM121,314.7c-.1-.9-.1-1.9-.1-2.8h2.3c.6,0,1.3,0,1.9.2-1.4.7-2.8,1.6-4,2.7l-.1-.1Z"></path>
    <path d="M88.6,281.4c-4.8-.3-9.4-.7-14-1.9.2-.7.4-1.4.6-2,.9-2.8,1.9-5.7,2.8-8.5,1.2-3.7-4.6-5.3-5.8-1.6-.6,1.8-1.2,3.7-1.8,5.5-.4,1.1-.8,3.1-1.3,4.8-1.2,1.2-2.5,2.3-3.8,3.4-3.5-1.5-6.3-4-9-7.3-2.4-3-6.6,1.2-4.2,4.2,2.4,3,4.9,5.4,7.8,7.1-.7.4-1.3.8-2,1.2-1.6.8-3.2,1.6-4.9,2.3-3.5,1.4-2.1,7.1,1.6,5.8,1.9-.7,3.8-1.6,5.6-2.5,1.3-.6,2.5-1.2,3.7-1.9,1.1-.6,2.4-1.2,3.7-1.8.2,0,.4,0,.6.1.3,0,.6,0,.8.1.4,3.8,1.1,7.5,2.6,11h0c0,.2.2.5.3.7,1.5,3.2,6.2.9,5.5-2.3-.7-3-1.1-6-1.6-9,4.5-.1,8.9-1,13.5-1.6,3.5-.5,2.4-5.7-.8-5.9l.1.1Z"></path>
    <path d="M70,238.6c3.9.2,3.8-5.8,0-6-7-.4-15.2-1-22.8-3.1,1-2,2-4,3.1-6,1.8-3.4-3.4-6.4-5.2-3-1.3,2.4-2.4,4.7-3.6,7.1-.7-.3-1.3-.6-1.9-.9-2.8-2.9-6.1-5.3-9.8-7-3-1.4-6,2.1-3.6,4.7,2.8,3,6.1,5.4,9.8,7.2.2.3.5.5.7.8-3.2,3.9-7.5,6.8-11.3,10.1-2.2,1.9-.2,4.8,2.1,5.1,4.5.6,10.1-1.1,13.3-4.5v-.1c.9,2.4,1.9,4.8,2.8,7.1,1.1,2.9,6,2.8,5.9-.8-.2-4.9-1.5-9.7-3.7-14,8,2.2,16.7,2.9,24.2,3.3h0Z"></path>
    <path d="M26.7,172.3c3.7,2.7,7.6,4.8,11.8,6.5-2.5,3.6-5.5,6.8-9,9.6-3,2.4,1.3,6.6,4.2,4.2,3.6-2.9,6.8-6.2,9.6-9.8,3.7,4.2,6,9.6,5,15.3-.7,3.8,5.1,5.4,5.8,1.6,1.2-6.5-.5-12.5-3.9-17.6,5.6.5,11.2.5,16.7-.4,3.8-.6,2.2-6.4-1.6-5.8-5.7.9-11.7.7-17.4,0,2.8-5,4.8-10.5,6-16.3.8-3.8-5-5.4-5.8-1.6-1.1,5.7-3.2,10.9-5.9,15.7-.2,0-.4-.1-.6-.2-.1,0-.3-.1-.4-.2-4.1-1.6-7.9-3.7-11.5-6.3-3.1-2.3-6.1,2.9-3,5.2v.1Z"></path>
    <path d="M100.3,128.8c-6.7-2.3-11.6-.8-18.1.7-1.5.3-3.1.1-4.6-.4,2-5.4,2.6-11.2,3.3-16.9.4-3.8-5.6-3.8-6,0-.5,4.6-1,9.4-2.5,13.8-3.7-2.9-7.2-6.8-9.9-9-2.6-2.1-6.4.4-4.7,3.6,2.2,4.3,5.1,8.1,8,12-2.8,3.7-5.1,7.2-5.1,12.5,0,3.6,4.7,3.8,5.9.8.9-2.4,2.5-4.4,4.2-6.4,2.2,3.3,4.1,6.7,5.4,10.4.9,2.6,5.2,3.1,5.8,0,1.1-5.6-.1-10.1-2.6-14.2,2,.1,4.1-.3,6.1-.9,4.7-1.5,8.6-1.9,13.4-.2,3.7,1.3,5.2-4.5,1.6-5.8h-.2Z"></path>
    <path d="M137.9,103c-3.8,0-7.5-.6-11.2-1.5,1.4-3.3,2.6-6.7,3.9-9.9,1.4-3.6-4.4-5.2-5.8-1.6-1.2,3-2.3,6.4-3.7,9.7-.9-.3-2-.7-3.1-1.1-2.7-2.2-5.4-4.3-7.4-6.4-2-2-6.2,0-5,2.9,1.8,4.5,6.2,7.1,10.5,9,.6.5,1.3,1,1.9,1.5-.1.2-.3.4-.4.6-3.1,2.6-6.3,4.9-9.8,6.9-3,1.7-1,6.3,2.3,5.5,5.1-1.2,8.8-4.2,11.6-8l.2-.2c1,4,1.7,8.1,1.9,12.3.1,2.8,4.1,4.3,5.6,1.5,3.4-6.5,1.9-11.8-1.5-16.4,3.3.7,6.7,1.1,10,1.1,3.9,0,3.9-6,0-6v.1Z"></path>
  </g>
  <g>
    <path d="M159.9,58.2h88v18.6h-65.5v34.8h59.7v18.5h-59.7v36.9h65.5v18.8h-88V58.2Z"></path>
    <path d="M269,136.6V58.2h22.8v78.7c0,22.8,14.3,31,29.1,31s29.1-8.1,29.1-31V58.2h22.8v78.4c0,34.6-21.7,51.9-51.9,51.9s-51.9-17.7-51.9-51.9Z"></path>
    <path d="M193.4,266.9c0-38,25.2-66.4,64.4-66.4s59.4,26.6,62.4,51.2h-23.9c-3.4-16.1-14.3-31.5-38.9-31.5s-40,16.7-40,46.7,17.2,46.7,40,46.7,35.8-15.2,39.1-31.7h24.1c-2.7,24.6-22.1,51.6-63,51.6s-64.3-27.3-64.3-66.6h.1Z"></path>
    <path d="M365,277.2l-48-74h26.4l33.5,53.4,33.1-53.4h25.7l-48,74v53.6h-22.8v-53.6h.1Z"></path>
    <path d="M429.8,291.4h22.6c1.3,11.4,9.2,24.3,31,24.3s28.4-9.8,28.4-19-4.7-15.9-23.3-19.4l-14.5-2.5c-27.9-4.7-38.9-16.8-38.9-37.1s17.6-37.1,46.3-37.1,49.2,20.1,51.2,40h-22.8c-2.2-11.8-9.8-22.3-28.2-22.3s-24.6,9.6-24.6,17.6,5.2,14.8,23,17.9l13.9,2.4c26.8,4.5,42,17,42,38.7s-19.7,38.7-52.3,38.7-52.1-18.5-53.8-42.2Z"></path>
    <path d="M188.6,354.9c-.7,2.7-1.4,3.5-3.4,3.6l-5,.5c-5.5.7-8.1,1.4-11.7,4.4l-54.6,45.8c-.9.7-1.1,1.4-.4,2.3l30.9,45.9c5.8,8.7,12.4,10.6,24.4,11.7,1.9.2,2.8,1.4,2.5,3.3-.4,2.3-1.6,3.5-3.4,3.5-4.1,0-7.4-.2-11.9-.2-8.6,0-10.4.2-12.9.2-4.1,0-7.4-1.6-10.8-6.9l-30.2-47.3c-1.2-1.9-2.7-2.5-5.7-2.5h-8.1l-8.7,41.5c-1.2,6.2,1.4,7.6,15.4,8.5,2.3.2,3,1.3,2.5,4-.2,1.8-1.2,2.8-2.7,2.8-8.1,0-18.1-.4-25.2-.4s-13.9.4-24,.4-2.8-1.2-2.5-3.2c.4-2.3,1.4-3.5,3.2-3.6,12.4-.7,16.6-3.2,18.1-10.3l19.5-92.2c1.2-6-1.6-7.6-15.6-8.5-2.1-.2-2.8-1.5-2.3-4,.4-1.8,1.4-2.8,3-2.8,8.1,0,18.1.4,25.6.4s13.1-.4,23.2-.4,2.7,1.4,2.3,3.2c-.5,2.3-1.6,3.5-3.4,3.6-11.9.7-15.9,3.2-17.5,10.4l-9.4,43.8h5c2.5,0,3.5,0,8.3-4.1l52-43.5c1.2-1.1,1.9-2.1,1.9-3.2s-1.2-2.5-3-2.7l-13.5-.7c-2.5-.2-3.5-1.5-3.2-3.5.5-2.3,1.4-3.4,3-3.4,9,0,13.5.2,21.4.2s16.4-.2,24.3-.2,2.8,1.2,2.5,3.2l.1.4Z"></path>
    <path d="M176.8,466.2c0-4.6,1.2-10.3,5.1-22.1l12.5-37.5c1.4-4.2-.5-7.6-4.2-7.6s-4.8,2.1-6.7,2.1-2.7-1.1-2.7-2.7c0-4.2,8.3-9.6,15.5-9.6s12.2,4.2,12.2,10.4-.7,6.5-3.7,15.3l-8,23.5c-3.5,10.7-6.2,20.5-6.2,24.1s1.4,5,4.2,5,4.2-1.6,7.1-4.6c2.3-2.7,3.7-3.5,4.8-3.5,1.6,0,3,1.2,2.3,3.7-2.4,8.1-12.7,15.3-21.8,15.3s-10.3-4.1-10.3-11.8h-.1ZM194.7,365.8c0-5.2,4.9-10.5,10.9-10.5s10.8,5.3,10.8,10.5-4.9,10.9-10.8,10.9-10.9-5.2-10.9-10.9Z"></path>
    <path d="M280.5,454c-4.9,12.6-18.9,24-34,24s-26.9-11.7-26.9-30.6c0-31.3,22.7-58.5,49-58.5s19.6,6.6,19.6,15.7c0,17.7-24,30.5-54.5,28.9-4.2,18.7,4.1,33.1,17.5,33.1s15.8-4.2,22.7-12.7c2.1-2.7,2.8-3.4,4.2-3.4s3,1.6,2.3,3.5h.1ZM235.3,427.5c22.1-.5,39.1-10.3,39.1-22.5s-4.2-9.5-10.3-9.5c-11.7,0-24.2,14.1-28.9,31.9l.1.1Z"></path>
    <path d="M331.8,459.9c0,4.3-11.2,18.1-25.8,18.1s-11.8-5.1-11.8-11.9,1.6-10.2,2.7-14.7l21.2-81.9c1.8-6.7,1.1-9-6.3-9s-3.8-1.4-3.8-3.2.9-2.7,2.2-3.4c10.9-4.4,21.4-6.9,23.2-6.9s3,1.2,3,3.2-1.2,5.4-3.2,12.6l-24.6,94.3c-2.1,7.8.4,10.1,4.1,10.1s9.3-3.9,11.9-6.4c1.8-1.8,3-3.5,4.8-3.5s2.3,1,2.3,2.7l.1-.1Z"></path>
    <path d="M430.7,383.3c0-10.9-6.5-19.9-20.8-19.9s-21.9,13.2-20.1,30h-21c-2.5-30,13.8-48,42-48s42.4,17,42.4,36.2-10,31.3-24.3,47.2l-24.6,28.2h51.4v18.6h-92.7l51.2-59.9c11.8-14.1,16.5-22.1,16.5-32.6v.2Z"></path>
    <path d="M463.4,434.4c0-22.1,15.6-40.9,30.2-58.5l23.7-27.7h25.9l-42.5,48c4.2-1.8,9.1-2.5,14.7-2.5,22.4,0,42,15.9,42,40.5s-17.9,44.3-47.4,44.3-46.5-20.1-46.5-44.2l-.1.1ZM509.9,460.4c14.8,0,25.3-10.5,25.3-25.5s-10.5-25.2-25.3-25.2-25,10.3-25,25.2,10.3,25.5,25,25.5h0Z"></path>
  </g>
</svg>
